# xmcd
#
# Track frame offsets: 
#        150
#        17417
#        34942
#        55945
#        76773
#        98336
#        112474
#        137397
#        144608
#        160374
#        176187
#        190632
#        211769
#
# Disc length: 3056 seconds
#
# Revision: 0
# Processed by: cddbd v1.5.2PL0 Copyright (c) Steve Scherf et al.
# Submitted via: ExactAudioCopy v1.0b3
#
DISCID=a70bee0d
DTITLE=Nora Jane Struthers - Champion
DYEAR=2017
DGENRE=Country
TTITLE0=Each Season
TTITLE1=Champion
TTITLE2=Grass
TTITLE3=Belief
TTITLE4=Let's Get The Day Started Right
TTITLE5=Just A House
TTITLE6=Grit
TTITLE7=Robot(Awakening)
TTITLE8=Robot
TTITLE9=The Words
TTITLE10=Show Me
TTITLE11=Band Family
TTITLE12=Wonderful Home
EXTD=
EXTT0=
EXTT1=
EXTT2=
EXTT3=
EXTT4=
EXTT5=
EXTT6=
EXTT7=
EXTT8=
EXTT9=
EXTT10=
EXTT11=
EXTT12=
PLAYORDER=
